# xmcd
#
# Track frame offsets: 
#        187
#        16764
#        42907
#        66249
#        89034
#        104304
#        122364
#        138847
#        160177
#        182587
#        198804
#        220067
#        242329
#        251509
#        270564
#        283582
#        297914
#
# Disc length: 4209 seconds
#
# Revision: 3
# Processed by: cddbd v1.5.2PL0 Copyright (c) Steve Scherf et al.
# Submitted via: ExactAudioCopyFreeDBPlugin 1.0
#
DISCID=e8106f11
DTITLE=大貫妙子 - The very best of 大貫妙子
DYEAR=1991
DGENRE=JPop
TTITLE0=いつも通り
TTITLE1=When I Met The Grey Sky
TTITLE2=都会
TTITLE3=突然の贈りもの
TTITLE4=海と少年
TTITLE5=新しいシャツ
TTITLE6=愛の行方
TTITLE7=アヴァンチュリエール
TTITLE8=黒のクレール
TTITLE9=色彩都市
TTITLE10=夏に恋する女たち
TTITLE11=幻惑
TTITLE12=カイエI
TTITLE13=ベジタブル
TTITLE14=ソーン・トゥリーのうた
TTITLE15=ピーターラビットとわたし
TTITLE16=チェッカーくん
EXTD=YEAR: 1991
EXTT0=
EXTT1=
EXTT2=
EXTT3=
EXTT4=
EXTT5=
EXTT6=
EXTT7=
EXTT8=
EXTT9=
EXTT10=
EXTT11=
EXTT12=
EXTT13=
EXTT14=
EXTT15=
EXTT16=
PLAYORDER=
